<?xml version="1.0" encoding="UTF-8"?><svg xmlns="http://www.w3.org/2000/svg" xmlns:xlink="http://www.w3.org/1999/xlink" stroke-dasharray="none" shape-rendering="auto" font-family="'Dialog'" width="960" text-rendering="auto" fill-opacity="1" contentScriptType="text/ecmascript" color-interpolation="auto" color-rendering="auto" preserveAspectRatio="xMidYMid meet" font-size="12" fill="black" stroke="black" image-rendering="auto" stroke-miterlimit="10" zoomAndPan="magnify" version="1.0" stroke-linecap="square" stroke-linejoin="miter" contentStyleType="text/css" font-style="normal" height="720" stroke-width="1" stroke-dashoffset="0" font-weight="normal" stroke-opacity="1">
<!--Generated by the Batik Graphics2D SVG Generator-->
<defs id="genericDefs"/>
<g>
<defs id="defs1">
<clipPath clipPathUnits="userSpaceOnUse" id="clipPath1">
<path d="M34 25 L926 25 L926 695 L34 695 L34 25 Z"/>
</clipPath>
<clipPath clipPathUnits="userSpaceOnUse" id="clipPath2">
<path d="M-1 -1 L961 -1 L961 721 L-1 721 L-1 -1 Z"/>
</clipPath>
</defs>
<g fill="white" text-rendering="geometricPrecision" font-family="'Segoe UI'" stroke-linejoin="round" stroke="white" stroke-width="0" stroke-miterlimit="0">
<rect x="35" y="26" clip-path="url(#clipPath1)" width="890" height="668" stroke="none"/>
</g>
<g stroke-linecap="butt" fill="rgb(204,204,204)" text-rendering="geometricPrecision" font-family="'Segoe UI'" stroke-dasharray="3,3" stroke="rgb(204,204,204)">
<line clip-path="url(#clipPath1)" fill="none" x1="35" x2="925" y1="694" y2="694"/>
<line clip-path="url(#clipPath1)" fill="none" x1="35" x2="925" y1="627" y2="627"/>
<line clip-path="url(#clipPath1)" fill="none" x1="35" x2="925" y1="560" y2="560"/>
<line clip-path="url(#clipPath1)" fill="none" x1="35" x2="925" y1="493" y2="493"/>
<line clip-path="url(#clipPath1)" fill="none" x1="35" x2="925" y1="426" y2="426"/>
<line clip-path="url(#clipPath1)" fill="none" x1="35" x2="925" y1="360" y2="360"/>
<line clip-path="url(#clipPath1)" fill="none" x1="35" x2="925" y1="293" y2="293"/>
<line clip-path="url(#clipPath1)" fill="none" x1="35" x2="925" y1="226" y2="226"/>
<line clip-path="url(#clipPath1)" fill="none" x1="35" x2="925" y1="159" y2="159"/>
<line clip-path="url(#clipPath1)" fill="none" x1="35" x2="925" y1="92" y2="92"/>
<rect x="35" y="26" clip-path="url(#clipPath2)" fill="none" width="890" stroke-dasharray="none" height="668" stroke="black"/>
</g>
<g text-rendering="geometricPrecision" font-size="13" font-family="'Arial'" stroke-linecap="butt">
<line clip-path="url(#clipPath2)" fill="none" x1="35" x2="925" y1="24" y2="24"/>
<line clip-path="url(#clipPath2)" fill="none" x1="35" x2="925" y1="696" y2="696"/>
<line clip-path="url(#clipPath2)" fill="none" x1="35" x2="35" y1="20" y2="24"/>
<line clip-path="url(#clipPath2)" fill="none" x1="35" x2="35" y1="700" y2="696"/>
<text x="27" font-size="10" y="13" clip-path="url(#clipPath2)" stroke="none" xml:space="preserve">0.0</text>
<text x="27" font-size="10" y="711" clip-path="url(#clipPath2)" stroke="none" xml:space="preserve">0.0</text>
<line clip-path="url(#clipPath2)" fill="none" x1="52" x2="52" y1="22" y2="24"/>
<line clip-path="url(#clipPath2)" fill="none" x1="52" x2="52" y1="698" y2="696"/>
<line clip-path="url(#clipPath2)" fill="none" x1="70" x2="70" y1="22" y2="24"/>
<line clip-path="url(#clipPath2)" fill="none" x1="70" x2="70" y1="698" y2="696"/>
<line clip-path="url(#clipPath2)" fill="none" x1="88" x2="88" y1="22" y2="24"/>
<line clip-path="url(#clipPath2)" fill="none" x1="88" x2="88" y1="698" y2="696"/>
<line clip-path="url(#clipPath2)" fill="none" x1="106" x2="106" y1="22" y2="24"/>
<line clip-path="url(#clipPath2)" fill="none" x1="106" x2="106" y1="698" y2="696"/>
<line clip-path="url(#clipPath2)" fill="none" x1="124" x2="124" y1="20" y2="24"/>
<line clip-path="url(#clipPath2)" fill="none" x1="124" x2="124" y1="700" y2="696"/>
<text x="113" font-size="10" y="13" clip-path="url(#clipPath2)" stroke="none" xml:space="preserve">0.10</text>
<text x="113" font-size="10" y="711" clip-path="url(#clipPath2)" stroke="none" xml:space="preserve">0.10</text>
<line clip-path="url(#clipPath2)" fill="none" x1="141" x2="141" y1="22" y2="24"/>
<line clip-path="url(#clipPath2)" fill="none" x1="141" x2="141" y1="698" y2="696"/>
<line clip-path="url(#clipPath2)" fill="none" x1="159" x2="159" y1="22" y2="24"/>
<line clip-path="url(#clipPath2)" fill="none" x1="159" x2="159" y1="698" y2="696"/>
<line clip-path="url(#clipPath2)" fill="none" x1="177" x2="177" y1="22" y2="24"/>
<line clip-path="url(#clipPath2)" fill="none" x1="177" x2="177" y1="698" y2="696"/>
<line clip-path="url(#clipPath2)" fill="none" x1="195" x2="195" y1="22" y2="24"/>
<line clip-path="url(#clipPath2)" fill="none" x1="195" x2="195" y1="698" y2="696"/>
<line clip-path="url(#clipPath2)" fill="none" x1="213" x2="213" y1="20" y2="24"/>
<line clip-path="url(#clipPath2)" fill="none" x1="213" x2="213" y1="700" y2="696"/>
<text x="202" font-size="10" y="13" clip-path="url(#clipPath2)" stroke="none" xml:space="preserve">0.20</text>
<text x="202" font-size="10" y="711" clip-path="url(#clipPath2)" stroke="none" xml:space="preserve">0.20</text>
<line clip-path="url(#clipPath2)" fill="none" x1="230" x2="230" y1="22" y2="24"/>
<line clip-path="url(#clipPath2)" fill="none" x1="230" x2="230" y1="698" y2="696"/>
<line clip-path="url(#clipPath2)" fill="none" x1="248" x2="248" y1="22" y2="24"/>
<line clip-path="url(#clipPath2)" fill="none" x1="248" x2="248" y1="698" y2="696"/>
<line clip-path="url(#clipPath2)" fill="none" x1="266" x2="266" y1="22" y2="24"/>
<line clip-path="url(#clipPath2)" fill="none" x1="266" x2="266" y1="698" y2="696"/>
<line clip-path="url(#clipPath2)" fill="none" x1="284" x2="284" y1="22" y2="24"/>
<line clip-path="url(#clipPath2)" fill="none" x1="284" x2="284" y1="698" y2="696"/>
<line clip-path="url(#clipPath2)" fill="none" x1="302" x2="302" y1="20" y2="24"/>
<line clip-path="url(#clipPath2)" fill="none" x1="302" x2="302" y1="700" y2="696"/>
<text x="291" font-size="10" y="13" clip-path="url(#clipPath2)" stroke="none" xml:space="preserve">0.30</text>
<text x="291" font-size="10" y="711" clip-path="url(#clipPath2)" stroke="none" xml:space="preserve">0.30</text>
<line clip-path="url(#clipPath2)" fill="none" x1="319" x2="319" y1="22" y2="24"/>
<line clip-path="url(#clipPath2)" fill="none" x1="319" x2="319" y1="698" y2="696"/>
<line clip-path="url(#clipPath2)" fill="none" x1="337" x2="337" y1="22" y2="24"/>
<line clip-path="url(#clipPath2)" fill="none" x1="337" x2="337" y1="698" y2="696"/>
<line clip-path="url(#clipPath2)" fill="none" x1="355" x2="355" y1="22" y2="24"/>
<line clip-path="url(#clipPath2)" fill="none" x1="355" x2="355" y1="698" y2="696"/>
<line clip-path="url(#clipPath2)" fill="none" x1="373" x2="373" y1="22" y2="24"/>
<line clip-path="url(#clipPath2)" fill="none" x1="373" x2="373" y1="698" y2="696"/>
<line clip-path="url(#clipPath2)" fill="none" x1="391" x2="391" y1="20" y2="24"/>
<line clip-path="url(#clipPath2)" fill="none" x1="391" x2="391" y1="700" y2="696"/>
<text x="380" font-size="10" y="13" clip-path="url(#clipPath2)" stroke="none" xml:space="preserve">0.40</text>
<text x="380" font-size="10" y="711" clip-path="url(#clipPath2)" stroke="none" xml:space="preserve">0.40</text>
<line clip-path="url(#clipPath2)" fill="none" x1="408" x2="408" y1="22" y2="24"/>
<line clip-path="url(#clipPath2)" fill="none" x1="408" x2="408" y1="698" y2="696"/>
<line clip-path="url(#clipPath2)" fill="none" x1="426" x2="426" y1="22" y2="24"/>
<line clip-path="url(#clipPath2)" fill="none" x1="426" x2="426" y1="698" y2="696"/>
<line clip-path="url(#clipPath2)" fill="none" x1="444" x2="444" y1="22" y2="24"/>
<line clip-path="url(#clipPath2)" fill="none" x1="444" x2="444" y1="698" y2="696"/>
<line clip-path="url(#clipPath2)" fill="none" x1="462" x2="462" y1="22" y2="24"/>
<line clip-path="url(#clipPath2)" fill="none" x1="462" x2="462" y1="698" y2="696"/>
<line clip-path="url(#clipPath2)" fill="none" x1="480" x2="480" y1="20" y2="24"/>
<line clip-path="url(#clipPath2)" fill="none" x1="480" x2="480" y1="700" y2="696"/>
<text x="469" font-size="10" y="13" clip-path="url(#clipPath2)" stroke="none" xml:space="preserve">0.50</text>
<text x="469" font-size="10" y="711" clip-path="url(#clipPath2)" stroke="none" xml:space="preserve">0.50</text>
<line clip-path="url(#clipPath2)" fill="none" x1="497" x2="497" y1="22" y2="24"/>
<line clip-path="url(#clipPath2)" fill="none" x1="497" x2="497" y1="698" y2="696"/>
<line clip-path="url(#clipPath2)" fill="none" x1="515" x2="515" y1="22" y2="24"/>
<line clip-path="url(#clipPath2)" fill="none" x1="515" x2="515" y1="698" y2="696"/>
<line clip-path="url(#clipPath2)" fill="none" x1="533" x2="533" y1="22" y2="24"/>
<line clip-path="url(#clipPath2)" fill="none" x1="533" x2="533" y1="698" y2="696"/>
<line clip-path="url(#clipPath2)" fill="none" x1="551" x2="551" y1="22" y2="24"/>
<line clip-path="url(#clipPath2)" fill="none" x1="551" x2="551" y1="698" y2="696"/>
<line clip-path="url(#clipPath2)" fill="none" x1="569" x2="569" y1="20" y2="24"/>
<line clip-path="url(#clipPath2)" fill="none" x1="569" x2="569" y1="700" y2="696"/>
<text x="558" font-size="10" y="13" clip-path="url(#clipPath2)" stroke="none" xml:space="preserve">0.60</text>
<text x="558" font-size="10" y="711" clip-path="url(#clipPath2)" stroke="none" xml:space="preserve">0.60</text>
<line clip-path="url(#clipPath2)" fill="none" x1="586" x2="586" y1="22" y2="24"/>
<line clip-path="url(#clipPath2)" fill="none" x1="586" x2="586" y1="698" y2="696"/>
<line clip-path="url(#clipPath2)" fill="none" x1="604" x2="604" y1="22" y2="24"/>
<line clip-path="url(#clipPath2)" fill="none" x1="604" x2="604" y1="698" y2="696"/>
<line clip-path="url(#clipPath2)" fill="none" x1="622" x2="622" y1="22" y2="24"/>
<line clip-path="url(#clipPath2)" fill="none" x1="622" x2="622" y1="698" y2="696"/>
<line clip-path="url(#clipPath2)" fill="none" x1="640" x2="640" y1="22" y2="24"/>
<line clip-path="url(#clipPath2)" fill="none" x1="640" x2="640" y1="698" y2="696"/>
<line clip-path="url(#clipPath2)" fill="none" x1="658" x2="658" y1="20" y2="24"/>
<line clip-path="url(#clipPath2)" fill="none" x1="658" x2="658" y1="700" y2="696"/>
<text x="647" font-size="10" y="13" clip-path="url(#clipPath2)" stroke="none" xml:space="preserve">0.70</text>
<text x="647" font-size="10" y="711" clip-path="url(#clipPath2)" stroke="none" xml:space="preserve">0.70</text>
<line clip-path="url(#clipPath2)" fill="none" x1="675" x2="675" y1="22" y2="24"/>
<line clip-path="url(#clipPath2)" fill="none" x1="675" x2="675" y1="698" y2="696"/>
<line clip-path="url(#clipPath2)" fill="none" x1="693" x2="693" y1="22" y2="24"/>
<line clip-path="url(#clipPath2)" fill="none" x1="693" x2="693" y1="698" y2="696"/>
<line clip-path="url(#clipPath2)" fill="none" x1="711" x2="711" y1="22" y2="24"/>
<line clip-path="url(#clipPath2)" fill="none" x1="711" x2="711" y1="698" y2="696"/>
<line clip-path="url(#clipPath2)" fill="none" x1="729" x2="729" y1="22" y2="24"/>
<line clip-path="url(#clipPath2)" fill="none" x1="729" x2="729" y1="698" y2="696"/>
<line clip-path="url(#clipPath2)" fill="none" x1="747" x2="747" y1="20" y2="24"/>
<line clip-path="url(#clipPath2)" fill="none" x1="747" x2="747" y1="700" y2="696"/>
<text x="736" font-size="10" y="13" clip-path="url(#clipPath2)" stroke="none" xml:space="preserve">0.80</text>
<text x="736" font-size="10" y="711" clip-path="url(#clipPath2)" stroke="none" xml:space="preserve">0.80</text>
<line clip-path="url(#clipPath2)" fill="none" x1="764" x2="764" y1="22" y2="24"/>
<line clip-path="url(#clipPath2)" fill="none" x1="764" x2="764" y1="698" y2="696"/>
<line clip-path="url(#clipPath2)" fill="none" x1="782" x2="782" y1="22" y2="24"/>
<line clip-path="url(#clipPath2)" fill="none" x1="782" x2="782" y1="698" y2="696"/>
<line clip-path="url(#clipPath2)" fill="none" x1="800" x2="800" y1="22" y2="24"/>
<line clip-path="url(#clipPath2)" fill="none" x1="800" x2="800" y1="698" y2="696"/>
<line clip-path="url(#clipPath2)" fill="none" x1="818" x2="818" y1="22" y2="24"/>
<line clip-path="url(#clipPath2)" fill="none" x1="818" x2="818" y1="698" y2="696"/>
<line clip-path="url(#clipPath2)" fill="none" x1="836" x2="836" y1="20" y2="24"/>
<line clip-path="url(#clipPath2)" fill="none" x1="836" x2="836" y1="700" y2="696"/>
<text x="825" font-size="10" y="13" clip-path="url(#clipPath2)" stroke="none" xml:space="preserve">0.90</text>
<text x="825" font-size="10" y="711" clip-path="url(#clipPath2)" stroke="none" xml:space="preserve">0.90</text>
<line clip-path="url(#clipPath2)" fill="none" x1="853" x2="853" y1="22" y2="24"/>
<line clip-path="url(#clipPath2)" fill="none" x1="853" x2="853" y1="698" y2="696"/>
<line clip-path="url(#clipPath2)" fill="none" x1="871" x2="871" y1="22" y2="24"/>
<line clip-path="url(#clipPath2)" fill="none" x1="871" x2="871" y1="698" y2="696"/>
<line clip-path="url(#clipPath2)" fill="none" x1="889" x2="889" y1="22" y2="24"/>
<line clip-path="url(#clipPath2)" fill="none" x1="889" x2="889" y1="698" y2="696"/>
<line clip-path="url(#clipPath2)" fill="none" x1="907" x2="907" y1="22" y2="24"/>
<line clip-path="url(#clipPath2)" fill="none" x1="907" x2="907" y1="698" y2="696"/>
<line clip-path="url(#clipPath2)" fill="none" x1="33" x2="33" y1="26" y2="694"/>
<line clip-path="url(#clipPath2)" fill="none" x1="927" x2="927" y1="26" y2="694"/>
<line clip-path="url(#clipPath2)" fill="none" x1="29" x2="33" y1="694" y2="694"/>
<line clip-path="url(#clipPath2)" fill="none" x1="931" x2="927" y1="694" y2="694"/>
<text x="10" font-size="10" y="696" clip-path="url(#clipPath2)" stroke="none" xml:space="preserve">0.0</text>
<text x="934" font-size="10" y="696" clip-path="url(#clipPath2)" stroke="none" xml:space="preserve">0.0</text>
<line clip-path="url(#clipPath2)" fill="none" x1="31" x2="33" y1="680" y2="680"/>
<line clip-path="url(#clipPath2)" fill="none" x1="929" x2="927" y1="680" y2="680"/>
<line clip-path="url(#clipPath2)" fill="none" x1="31" x2="33" y1="667" y2="667"/>
<line clip-path="url(#clipPath2)" fill="none" x1="929" x2="927" y1="667" y2="667"/>
<line clip-path="url(#clipPath2)" fill="none" x1="31" x2="33" y1="653" y2="653"/>
<line clip-path="url(#clipPath2)" fill="none" x1="929" x2="927" y1="653" y2="653"/>
<line clip-path="url(#clipPath2)" fill="none" x1="31" x2="33" y1="640" y2="640"/>
<line clip-path="url(#clipPath2)" fill="none" x1="929" x2="927" y1="640" y2="640"/>
<line clip-path="url(#clipPath2)" fill="none" x1="29" x2="33" y1="627" y2="627"/>
<line clip-path="url(#clipPath2)" fill="none" x1="931" x2="927" y1="627" y2="627"/>
<text x="4" font-size="10" y="629" clip-path="url(#clipPath2)" stroke="none" xml:space="preserve">0.10</text>
<text x="934" font-size="10" y="629" clip-path="url(#clipPath2)" stroke="none" xml:space="preserve">0.10</text>
<line clip-path="url(#clipPath2)" fill="none" x1="31" x2="33" y1="613" y2="613"/>
<line clip-path="url(#clipPath2)" fill="none" x1="929" x2="927" y1="613" y2="613"/>
<line clip-path="url(#clipPath2)" fill="none" x1="31" x2="33" y1="600" y2="600"/>
<line clip-path="url(#clipPath2)" fill="none" x1="929" x2="927" y1="600" y2="600"/>
<line clip-path="url(#clipPath2)" fill="none" x1="31" x2="33" y1="587" y2="587"/>
<line clip-path="url(#clipPath2)" fill="none" x1="929" x2="927" y1="587" y2="587"/>
<line clip-path="url(#clipPath2)" fill="none" x1="31" x2="33" y1="573" y2="573"/>
<line clip-path="url(#clipPath2)" fill="none" x1="929" x2="927" y1="573" y2="573"/>
<line clip-path="url(#clipPath2)" fill="none" x1="29" x2="33" y1="560" y2="560"/>
<line clip-path="url(#clipPath2)" fill="none" x1="931" x2="927" y1="560" y2="560"/>
<text x="4" font-size="10" y="562" clip-path="url(#clipPath2)" stroke="none" xml:space="preserve">0.20</text>
<text x="934" font-size="10" y="562" clip-path="url(#clipPath2)" stroke="none" xml:space="preserve">0.20</text>
<line clip-path="url(#clipPath2)" fill="none" x1="31" x2="33" y1="547" y2="547"/>
<line clip-path="url(#clipPath2)" fill="none" x1="929" x2="927" y1="547" y2="547"/>
<line clip-path="url(#clipPath2)" fill="none" x1="31" x2="33" y1="533" y2="533"/>
<line clip-path="url(#clipPath2)" fill="none" x1="929" x2="927" y1="533" y2="533"/>
<line clip-path="url(#clipPath2)" fill="none" x1="31" x2="33" y1="520" y2="520"/>
<line clip-path="url(#clipPath2)" fill="none" x1="929" x2="927" y1="520" y2="520"/>
<line clip-path="url(#clipPath2)" fill="none" x1="31" x2="33" y1="506" y2="506"/>
<line clip-path="url(#clipPath2)" fill="none" x1="929" x2="927" y1="506" y2="506"/>
<line clip-path="url(#clipPath2)" fill="none" x1="29" x2="33" y1="493" y2="493"/>
<line clip-path="url(#clipPath2)" fill="none" x1="931" x2="927" y1="493" y2="493"/>
<text x="4" font-size="10" y="495" clip-path="url(#clipPath2)" stroke="none" xml:space="preserve">0.30</text>
<text x="934" font-size="10" y="495" clip-path="url(#clipPath2)" stroke="none" xml:space="preserve">0.30</text>
<line clip-path="url(#clipPath2)" fill="none" x1="31" x2="33" y1="480" y2="480"/>
<line clip-path="url(#clipPath2)" fill="none" x1="929" x2="927" y1="480" y2="480"/>
<line clip-path="url(#clipPath2)" fill="none" x1="31" x2="33" y1="466" y2="466"/>
<line clip-path="url(#clipPath2)" fill="none" x1="929" x2="927" y1="466" y2="466"/>
<line clip-path="url(#clipPath2)" fill="none" x1="31" x2="33" y1="453" y2="453"/>
<line clip-path="url(#clipPath2)" fill="none" x1="929" x2="927" y1="453" y2="453"/>
<line clip-path="url(#clipPath2)" fill="none" x1="31" x2="33" y1="440" y2="440"/>
<line clip-path="url(#clipPath2)" fill="none" x1="929" x2="927" y1="440" y2="440"/>
<line clip-path="url(#clipPath2)" fill="none" x1="29" x2="33" y1="426" y2="426"/>
<line clip-path="url(#clipPath2)" fill="none" x1="931" x2="927" y1="426" y2="426"/>
<text x="4" font-size="10" y="428" clip-path="url(#clipPath2)" stroke="none" xml:space="preserve">0.40</text>
<text x="934" font-size="10" y="428" clip-path="url(#clipPath2)" stroke="none" xml:space="preserve">0.40</text>
<line clip-path="url(#clipPath2)" fill="none" x1="31" x2="33" y1="413" y2="413"/>
<line clip-path="url(#clipPath2)" fill="none" x1="929" x2="927" y1="413" y2="413"/>
<line clip-path="url(#clipPath2)" fill="none" x1="31" x2="33" y1="400" y2="400"/>
<line clip-path="url(#clipPath2)" fill="none" x1="929" x2="927" y1="400" y2="400"/>
<line clip-path="url(#clipPath2)" fill="none" x1="31" x2="33" y1="386" y2="386"/>
<line clip-path="url(#clipPath2)" fill="none" x1="929" x2="927" y1="386" y2="386"/>
<line clip-path="url(#clipPath2)" fill="none" x1="31" x2="33" y1="373" y2="373"/>
<line clip-path="url(#clipPath2)" fill="none" x1="929" x2="927" y1="373" y2="373"/>
<line clip-path="url(#clipPath2)" fill="none" x1="29" x2="33" y1="360" y2="360"/>
<line clip-path="url(#clipPath2)" fill="none" x1="931" x2="927" y1="360" y2="360"/>
<text x="4" font-size="10" y="362" clip-path="url(#clipPath2)" stroke="none" xml:space="preserve">0.50</text>
<text x="934" font-size="10" y="362" clip-path="url(#clipPath2)" stroke="none" xml:space="preserve">0.50</text>
<line clip-path="url(#clipPath2)" fill="none" x1="31" x2="33" y1="346" y2="346"/>
<line clip-path="url(#clipPath2)" fill="none" x1="929" x2="927" y1="346" y2="346"/>
<line clip-path="url(#clipPath2)" fill="none" x1="31" x2="33" y1="333" y2="333"/>
<line clip-path="url(#clipPath2)" fill="none" x1="929" x2="927" y1="333" y2="333"/>
<line clip-path="url(#clipPath2)" fill="none" x1="31" x2="33" y1="319" y2="319"/>
<line clip-path="url(#clipPath2)" fill="none" x1="929" x2="927" y1="319" y2="319"/>
<line clip-path="url(#clipPath2)" fill="none" x1="31" x2="33" y1="306" y2="306"/>
<line clip-path="url(#clipPath2)" fill="none" x1="929" x2="927" y1="306" y2="306"/>
<line clip-path="url(#clipPath2)" fill="none" x1="29" x2="33" y1="293" y2="293"/>
<line clip-path="url(#clipPath2)" fill="none" x1="931" x2="927" y1="293" y2="293"/>
<text x="4" font-size="10" y="295" clip-path="url(#clipPath2)" stroke="none" xml:space="preserve">0.60</text>
<text x="934" font-size="10" y="295" clip-path="url(#clipPath2)" stroke="none" xml:space="preserve">0.60</text>
<line clip-path="url(#clipPath2)" fill="none" x1="31" x2="33" y1="279" y2="279"/>
<line clip-path="url(#clipPath2)" fill="none" x1="929" x2="927" y1="279" y2="279"/>
<line clip-path="url(#clipPath2)" fill="none" x1="31" x2="33" y1="266" y2="266"/>
<line clip-path="url(#clipPath2)" fill="none" x1="929" x2="927" y1="266" y2="266"/>
<line clip-path="url(#clipPath2)" fill="none" x1="31" x2="33" y1="253" y2="253"/>
<line clip-path="url(#clipPath2)" fill="none" x1="929" x2="927" y1="253" y2="253"/>
<line clip-path="url(#clipPath2)" fill="none" x1="31" x2="33" y1="239" y2="239"/>
<line clip-path="url(#clipPath2)" fill="none" x1="929" x2="927" y1="239" y2="239"/>
<line clip-path="url(#clipPath2)" fill="none" x1="29" x2="33" y1="226" y2="226"/>
<line clip-path="url(#clipPath2)" fill="none" x1="931" x2="927" y1="226" y2="226"/>
<text x="4" font-size="10" y="228" clip-path="url(#clipPath2)" stroke="none" xml:space="preserve">0.70</text>
<text x="934" font-size="10" y="228" clip-path="url(#clipPath2)" stroke="none" xml:space="preserve">0.70</text>
<line clip-path="url(#clipPath2)" fill="none" x1="31" x2="33" y1="213" y2="213"/>
<line clip-path="url(#clipPath2)" fill="none" x1="929" x2="927" y1="213" y2="213"/>
<line clip-path="url(#clipPath2)" fill="none" x1="31" x2="33" y1="199" y2="199"/>
<line clip-path="url(#clipPath2)" fill="none" x1="929" x2="927" y1="199" y2="199"/>
<line clip-path="url(#clipPath2)" fill="none" x1="31" x2="33" y1="186" y2="186"/>
<line clip-path="url(#clipPath2)" fill="none" x1="929" x2="927" y1="186" y2="186"/>
<line clip-path="url(#clipPath2)" fill="none" x1="31" x2="33" y1="172" y2="172"/>
<line clip-path="url(#clipPath2)" fill="none" x1="929" x2="927" y1="172" y2="172"/>
<line clip-path="url(#clipPath2)" fill="none" x1="29" x2="33" y1="159" y2="159"/>
<line clip-path="url(#clipPath2)" fill="none" x1="931" x2="927" y1="159" y2="159"/>
<text x="4" font-size="10" y="161" clip-path="url(#clipPath2)" stroke="none" xml:space="preserve">0.80</text>
<text x="934" font-size="10" y="161" clip-path="url(#clipPath2)" stroke="none" xml:space="preserve">0.80</text>
<line clip-path="url(#clipPath2)" fill="none" x1="31" x2="33" y1="146" y2="146"/>
<line clip-path="url(#clipPath2)" fill="none" x1="929" x2="927" y1="146" y2="146"/>
<line clip-path="url(#clipPath2)" fill="none" x1="31" x2="33" y1="132" y2="132"/>
<line clip-path="url(#clipPath2)" fill="none" x1="929" x2="927" y1="132" y2="132"/>
<line clip-path="url(#clipPath2)" fill="none" x1="31" x2="33" y1="119" y2="119"/>
<line clip-path="url(#clipPath2)" fill="none" x1="929" x2="927" y1="119" y2="119"/>
<line clip-path="url(#clipPath2)" fill="none" x1="31" x2="33" y1="106" y2="106"/>
<line clip-path="url(#clipPath2)" fill="none" x1="929" x2="927" y1="106" y2="106"/>
<line clip-path="url(#clipPath2)" fill="none" x1="29" x2="33" y1="92" y2="92"/>
<line clip-path="url(#clipPath2)" fill="none" x1="931" x2="927" y1="92" y2="92"/>
<text x="4" font-size="10" y="94" clip-path="url(#clipPath2)" stroke="none" xml:space="preserve">0.90</text>
<text x="934" font-size="10" y="94" clip-path="url(#clipPath2)" stroke="none" xml:space="preserve">0.90</text>
<line clip-path="url(#clipPath2)" fill="none" x1="31" x2="33" y1="79" y2="79"/>
<line clip-path="url(#clipPath2)" fill="none" x1="929" x2="927" y1="79" y2="79"/>
<line clip-path="url(#clipPath2)" fill="none" x1="31" x2="33" y1="66" y2="66"/>
<line clip-path="url(#clipPath2)" fill="none" x1="929" x2="927" y1="66" y2="66"/>
<line clip-path="url(#clipPath2)" fill="none" x1="31" x2="33" y1="52" y2="52"/>
<line clip-path="url(#clipPath2)" fill="none" x1="929" x2="927" y1="52" y2="52"/>
<line clip-path="url(#clipPath2)" fill="none" x1="31" x2="33" y1="39" y2="39"/>
<line clip-path="url(#clipPath2)" fill="none" x1="929" x2="927" y1="39" y2="39"/>
</g>
</g>
</svg>
