<?xml version="1.0" encoding="UTF-8"?><svg xmlns="http://www.w3.org/2000/svg" xmlns:xlink="http://www.w3.org/1999/xlink" stroke-dasharray="none" shape-rendering="auto" font-family="'Dialog'" width="960" text-rendering="auto" fill-opacity="1" contentScriptType="text/ecmascript" color-interpolation="auto" color-rendering="auto" preserveAspectRatio="xMidYMid meet" font-size="12" fill="black" stroke="black" image-rendering="auto" stroke-miterlimit="10" zoomAndPan="magnify" version="1.0" stroke-linecap="square" stroke-linejoin="miter" contentStyleType="text/css" font-style="normal" height="720" stroke-width="1" stroke-dashoffset="0" font-weight="normal" stroke-opacity="1">
<!--Generated by the Batik Graphics2D SVG Generator-->
<defs id="genericDefs"/>
<g>
<defs id="defs1">
<clipPath clipPathUnits="userSpaceOnUse" id="clipPath1">
<path d="M50 44 L929 44 L929 676 L50 676 L50 44 Z"/>
</clipPath>
<clipPath clipPathUnits="userSpaceOnUse" id="clipPath2">
<path d="M-1 -1 L961 -1 L961 721 L-1 721 L-1 -1 Z"/>
</clipPath>
</defs>
<g fill="white" text-rendering="geometricPrecision" font-family="'Segoe UI'" stroke-linejoin="round" stroke="white" stroke-width="0" stroke-miterlimit="0">
<rect x="51" y="45" clip-path="url(#clipPath1)" width="877" height="630" stroke="none"/>
</g>
<g stroke-linecap="butt" fill="rgb(204,204,204)" text-rendering="geometricPrecision" font-family="'Segoe UI'" stroke-dasharray="3,3" stroke="rgb(204,204,204)">
<line clip-path="url(#clipPath1)" fill="none" x1="51" x2="51" y1="45" y2="675"/>
<line clip-path="url(#clipPath1)" fill="none" x1="68" x2="68" y1="45" y2="675"/>
<line clip-path="url(#clipPath1)" fill="none" x1="85" x2="85" y1="45" y2="675"/>
<line clip-path="url(#clipPath1)" fill="none" x1="102" x2="102" y1="45" y2="675"/>
<line clip-path="url(#clipPath1)" fill="none" x1="120" x2="120" y1="45" y2="675"/>
<line clip-path="url(#clipPath1)" fill="none" x1="137" x2="137" y1="45" y2="675"/>
<line clip-path="url(#clipPath1)" fill="none" x1="154" x2="154" y1="45" y2="675"/>
<line clip-path="url(#clipPath1)" fill="none" x1="172" x2="172" y1="45" y2="675"/>
<line clip-path="url(#clipPath1)" fill="none" x1="189" x2="189" y1="45" y2="675"/>
<line clip-path="url(#clipPath1)" fill="none" x1="206" x2="206" y1="45" y2="675"/>
<line clip-path="url(#clipPath1)" fill="none" x1="224" x2="224" y1="45" y2="675"/>
<line clip-path="url(#clipPath1)" fill="none" x1="241" x2="241" y1="45" y2="675"/>
<line clip-path="url(#clipPath1)" fill="none" x1="258" x2="258" y1="45" y2="675"/>
<line clip-path="url(#clipPath1)" fill="none" x1="276" x2="276" y1="45" y2="675"/>
<line clip-path="url(#clipPath1)" fill="none" x1="293" x2="293" y1="45" y2="675"/>
<line clip-path="url(#clipPath1)" fill="none" x1="310" x2="310" y1="45" y2="675"/>
<line clip-path="url(#clipPath1)" fill="none" x1="328" x2="328" y1="45" y2="675"/>
<line clip-path="url(#clipPath1)" fill="none" x1="345" x2="345" y1="45" y2="675"/>
<line clip-path="url(#clipPath1)" fill="none" x1="362" x2="362" y1="45" y2="675"/>
<line clip-path="url(#clipPath1)" fill="none" x1="380" x2="380" y1="45" y2="675"/>
<line clip-path="url(#clipPath1)" fill="none" x1="397" x2="397" y1="45" y2="675"/>
<line clip-path="url(#clipPath1)" fill="none" x1="414" x2="414" y1="45" y2="675"/>
<line clip-path="url(#clipPath1)" fill="none" x1="432" x2="432" y1="45" y2="675"/>
<line clip-path="url(#clipPath1)" fill="none" x1="449" x2="449" y1="45" y2="675"/>
<line clip-path="url(#clipPath1)" fill="none" x1="466" x2="466" y1="45" y2="675"/>
<line clip-path="url(#clipPath1)" fill="none" x1="484" x2="484" y1="45" y2="675"/>
<line clip-path="url(#clipPath1)" fill="none" x1="501" x2="501" y1="45" y2="675"/>
<line clip-path="url(#clipPath1)" fill="none" x1="518" x2="518" y1="45" y2="675"/>
<line clip-path="url(#clipPath1)" fill="none" x1="536" x2="536" y1="45" y2="675"/>
<line clip-path="url(#clipPath1)" fill="none" x1="553" x2="553" y1="45" y2="675"/>
<line clip-path="url(#clipPath1)" fill="none" x1="570" x2="570" y1="45" y2="675"/>
<line clip-path="url(#clipPath1)" fill="none" x1="588" x2="588" y1="45" y2="675"/>
<line clip-path="url(#clipPath1)" fill="none" x1="605" x2="605" y1="45" y2="675"/>
<line clip-path="url(#clipPath1)" fill="none" x1="622" x2="622" y1="45" y2="675"/>
<line clip-path="url(#clipPath1)" fill="none" x1="639" x2="639" y1="45" y2="675"/>
<line clip-path="url(#clipPath1)" fill="none" x1="657" x2="657" y1="45" y2="675"/>
<line clip-path="url(#clipPath1)" fill="none" x1="674" x2="674" y1="45" y2="675"/>
<line clip-path="url(#clipPath1)" fill="none" x1="691" x2="691" y1="45" y2="675"/>
<line clip-path="url(#clipPath1)" fill="none" x1="709" x2="709" y1="45" y2="675"/>
<line clip-path="url(#clipPath1)" fill="none" x1="726" x2="726" y1="45" y2="675"/>
<line clip-path="url(#clipPath1)" fill="none" x1="743" x2="743" y1="45" y2="675"/>
<line clip-path="url(#clipPath1)" fill="none" x1="761" x2="761" y1="45" y2="675"/>
<line clip-path="url(#clipPath1)" fill="none" x1="778" x2="778" y1="45" y2="675"/>
<line clip-path="url(#clipPath1)" fill="none" x1="795" x2="795" y1="45" y2="675"/>
<line clip-path="url(#clipPath1)" fill="none" x1="813" x2="813" y1="45" y2="675"/>
<line clip-path="url(#clipPath1)" fill="none" x1="830" x2="830" y1="45" y2="675"/>
<line clip-path="url(#clipPath1)" fill="none" x1="847" x2="847" y1="45" y2="675"/>
<line clip-path="url(#clipPath1)" fill="none" x1="865" x2="865" y1="45" y2="675"/>
<line clip-path="url(#clipPath1)" fill="none" x1="882" x2="882" y1="45" y2="675"/>
<line clip-path="url(#clipPath1)" fill="none" x1="899" x2="899" y1="45" y2="675"/>
<line clip-path="url(#clipPath1)" fill="none" x1="917" x2="917" y1="45" y2="675"/>
<line clip-path="url(#clipPath1)" fill="none" x1="51" x2="928" y1="675" y2="675"/>
<line clip-path="url(#clipPath1)" fill="none" x1="51" x2="928" y1="627" y2="627"/>
<line clip-path="url(#clipPath1)" fill="none" x1="51" x2="928" y1="580" y2="580"/>
<line clip-path="url(#clipPath1)" fill="none" x1="51" x2="928" y1="533" y2="533"/>
<line clip-path="url(#clipPath1)" fill="none" x1="51" x2="928" y1="485" y2="485"/>
<line clip-path="url(#clipPath1)" fill="none" x1="51" x2="928" y1="438" y2="438"/>
<line clip-path="url(#clipPath1)" fill="none" x1="51" x2="928" y1="391" y2="391"/>
<line clip-path="url(#clipPath1)" fill="none" x1="51" x2="928" y1="344" y2="344"/>
<line clip-path="url(#clipPath1)" fill="none" x1="51" x2="928" y1="296" y2="296"/>
<line clip-path="url(#clipPath1)" fill="none" x1="51" x2="928" y1="249" y2="249"/>
<line clip-path="url(#clipPath1)" fill="none" x1="51" x2="928" y1="202" y2="202"/>
<line clip-path="url(#clipPath1)" fill="none" x1="51" x2="928" y1="155" y2="155"/>
<line clip-path="url(#clipPath1)" fill="none" x1="51" x2="928" y1="107" y2="107"/>
<line clip-path="url(#clipPath1)" fill="none" x1="51" x2="928" y1="60" y2="60"/>
<rect x="51" y="45" clip-path="url(#clipPath2)" fill="none" width="877" stroke-dasharray="none" height="630" stroke="black"/>
</g>
<g text-rendering="geometricPrecision" font-size="13" font-family="'Arial'" stroke-linecap="butt">
<text xml:space="preserve" x="461" y="12" clip-path="url(#clipPath2)" stroke="none">Node</text>
<line clip-path="url(#clipPath2)" fill="none" x1="51" x2="928" y1="43" y2="43"/>
<line clip-path="url(#clipPath2)" fill="none" x1="51" x2="928" y1="677" y2="677"/>
<text xml:space="preserve" x="401" y="713" clip-path="url(#clipPath2)" stroke="none">No,ber of Virtual Node</text>
<line clip-path="url(#clipPath2)" fill="none" x1="51" x2="51" y1="39" y2="43"/>
<line clip-path="url(#clipPath2)" fill="none" x1="51" x2="51" y1="681" y2="677"/>
<text x="43" font-size="10" y="32" clip-path="url(#clipPath2)" stroke="none" xml:space="preserve">0.0</text>
<text x="43" font-size="10" y="692" clip-path="url(#clipPath2)" stroke="none" xml:space="preserve">0.0</text>
<line clip-path="url(#clipPath2)" fill="none" x1="68" x2="68" y1="41" y2="43"/>
<line clip-path="url(#clipPath2)" fill="none" x1="68" x2="68" y1="679" y2="677"/>
<line clip-path="url(#clipPath2)" fill="none" x1="85" x2="85" y1="41" y2="43"/>
<line clip-path="url(#clipPath2)" fill="none" x1="85" x2="85" y1="679" y2="677"/>
<line clip-path="url(#clipPath2)" fill="none" x1="102" x2="102" y1="41" y2="43"/>
<line clip-path="url(#clipPath2)" fill="none" x1="102" x2="102" y1="679" y2="677"/>
<line clip-path="url(#clipPath2)" fill="none" x1="120" x2="120" y1="41" y2="43"/>
<line clip-path="url(#clipPath2)" fill="none" x1="120" x2="120" y1="679" y2="677"/>
<line clip-path="url(#clipPath2)" fill="none" x1="137" x2="137" y1="39" y2="43"/>
<line clip-path="url(#clipPath2)" fill="none" x1="137" x2="137" y1="681" y2="677"/>
<text x="126" font-size="10" y="32" clip-path="url(#clipPath2)" stroke="none" xml:space="preserve">0.10</text>
<text x="126" font-size="10" y="692" clip-path="url(#clipPath2)" stroke="none" xml:space="preserve">0.10</text>
<line clip-path="url(#clipPath2)" fill="none" x1="154" x2="154" y1="41" y2="43"/>
<line clip-path="url(#clipPath2)" fill="none" x1="154" x2="154" y1="679" y2="677"/>
<line clip-path="url(#clipPath2)" fill="none" x1="172" x2="172" y1="41" y2="43"/>
<line clip-path="url(#clipPath2)" fill="none" x1="172" x2="172" y1="679" y2="677"/>
<line clip-path="url(#clipPath2)" fill="none" x1="189" x2="189" y1="41" y2="43"/>
<line clip-path="url(#clipPath2)" fill="none" x1="189" x2="189" y1="679" y2="677"/>
<line clip-path="url(#clipPath2)" fill="none" x1="206" x2="206" y1="41" y2="43"/>
<line clip-path="url(#clipPath2)" fill="none" x1="206" x2="206" y1="679" y2="677"/>
<line clip-path="url(#clipPath2)" fill="none" x1="224" x2="224" y1="39" y2="43"/>
<line clip-path="url(#clipPath2)" fill="none" x1="224" x2="224" y1="681" y2="677"/>
<text x="213" font-size="10" y="32" clip-path="url(#clipPath2)" stroke="none" xml:space="preserve">0.20</text>
<text x="213" font-size="10" y="692" clip-path="url(#clipPath2)" stroke="none" xml:space="preserve">0.20</text>
<line clip-path="url(#clipPath2)" fill="none" x1="241" x2="241" y1="41" y2="43"/>
<line clip-path="url(#clipPath2)" fill="none" x1="241" x2="241" y1="679" y2="677"/>
<line clip-path="url(#clipPath2)" fill="none" x1="258" x2="258" y1="41" y2="43"/>
<line clip-path="url(#clipPath2)" fill="none" x1="258" x2="258" y1="679" y2="677"/>
<line clip-path="url(#clipPath2)" fill="none" x1="276" x2="276" y1="41" y2="43"/>
<line clip-path="url(#clipPath2)" fill="none" x1="276" x2="276" y1="679" y2="677"/>
<line clip-path="url(#clipPath2)" fill="none" x1="293" x2="293" y1="41" y2="43"/>
<line clip-path="url(#clipPath2)" fill="none" x1="293" x2="293" y1="679" y2="677"/>
<line clip-path="url(#clipPath2)" fill="none" x1="310" x2="310" y1="39" y2="43"/>
<line clip-path="url(#clipPath2)" fill="none" x1="310" x2="310" y1="681" y2="677"/>
<text x="299" font-size="10" y="32" clip-path="url(#clipPath2)" stroke="none" xml:space="preserve">0.30</text>
<text x="299" font-size="10" y="692" clip-path="url(#clipPath2)" stroke="none" xml:space="preserve">0.30</text>
<line clip-path="url(#clipPath2)" fill="none" x1="328" x2="328" y1="41" y2="43"/>
<line clip-path="url(#clipPath2)" fill="none" x1="328" x2="328" y1="679" y2="677"/>
<line clip-path="url(#clipPath2)" fill="none" x1="345" x2="345" y1="41" y2="43"/>
<line clip-path="url(#clipPath2)" fill="none" x1="345" x2="345" y1="679" y2="677"/>
<line clip-path="url(#clipPath2)" fill="none" x1="362" x2="362" y1="41" y2="43"/>
<line clip-path="url(#clipPath2)" fill="none" x1="362" x2="362" y1="679" y2="677"/>
<line clip-path="url(#clipPath2)" fill="none" x1="380" x2="380" y1="41" y2="43"/>
<line clip-path="url(#clipPath2)" fill="none" x1="380" x2="380" y1="679" y2="677"/>
<line clip-path="url(#clipPath2)" fill="none" x1="397" x2="397" y1="39" y2="43"/>
<line clip-path="url(#clipPath2)" fill="none" x1="397" x2="397" y1="681" y2="677"/>
<text x="386" font-size="10" y="32" clip-path="url(#clipPath2)" stroke="none" xml:space="preserve">0.40</text>
<text x="386" font-size="10" y="692" clip-path="url(#clipPath2)" stroke="none" xml:space="preserve">0.40</text>
<line clip-path="url(#clipPath2)" fill="none" x1="414" x2="414" y1="41" y2="43"/>
<line clip-path="url(#clipPath2)" fill="none" x1="414" x2="414" y1="679" y2="677"/>
<line clip-path="url(#clipPath2)" fill="none" x1="432" x2="432" y1="41" y2="43"/>
<line clip-path="url(#clipPath2)" fill="none" x1="432" x2="432" y1="679" y2="677"/>
<line clip-path="url(#clipPath2)" fill="none" x1="449" x2="449" y1="41" y2="43"/>
<line clip-path="url(#clipPath2)" fill="none" x1="449" x2="449" y1="679" y2="677"/>
<line clip-path="url(#clipPath2)" fill="none" x1="466" x2="466" y1="41" y2="43"/>
<line clip-path="url(#clipPath2)" fill="none" x1="466" x2="466" y1="679" y2="677"/>
<line clip-path="url(#clipPath2)" fill="none" x1="484" x2="484" y1="39" y2="43"/>
<line clip-path="url(#clipPath2)" fill="none" x1="484" x2="484" y1="681" y2="677"/>
<text x="473" font-size="10" y="32" clip-path="url(#clipPath2)" stroke="none" xml:space="preserve">0.50</text>
<text x="473" font-size="10" y="692" clip-path="url(#clipPath2)" stroke="none" xml:space="preserve">0.50</text>
<line clip-path="url(#clipPath2)" fill="none" x1="501" x2="501" y1="41" y2="43"/>
<line clip-path="url(#clipPath2)" fill="none" x1="501" x2="501" y1="679" y2="677"/>
<line clip-path="url(#clipPath2)" fill="none" x1="518" x2="518" y1="41" y2="43"/>
<line clip-path="url(#clipPath2)" fill="none" x1="518" x2="518" y1="679" y2="677"/>
<line clip-path="url(#clipPath2)" fill="none" x1="536" x2="536" y1="41" y2="43"/>
<line clip-path="url(#clipPath2)" fill="none" x1="536" x2="536" y1="679" y2="677"/>
<line clip-path="url(#clipPath2)" fill="none" x1="553" x2="553" y1="41" y2="43"/>
<line clip-path="url(#clipPath2)" fill="none" x1="553" x2="553" y1="679" y2="677"/>
<line clip-path="url(#clipPath2)" fill="none" x1="570" x2="570" y1="39" y2="43"/>
<line clip-path="url(#clipPath2)" fill="none" x1="570" x2="570" y1="681" y2="677"/>
<text x="559" font-size="10" y="32" clip-path="url(#clipPath2)" stroke="none" xml:space="preserve">0.60</text>
<text x="559" font-size="10" y="692" clip-path="url(#clipPath2)" stroke="none" xml:space="preserve">0.60</text>
<line clip-path="url(#clipPath2)" fill="none" x1="588" x2="588" y1="41" y2="43"/>
<line clip-path="url(#clipPath2)" fill="none" x1="588" x2="588" y1="679" y2="677"/>
<line clip-path="url(#clipPath2)" fill="none" x1="605" x2="605" y1="41" y2="43"/>
<line clip-path="url(#clipPath2)" fill="none" x1="605" x2="605" y1="679" y2="677"/>
<line clip-path="url(#clipPath2)" fill="none" x1="622" x2="622" y1="41" y2="43"/>
<line clip-path="url(#clipPath2)" fill="none" x1="622" x2="622" y1="679" y2="677"/>
<line clip-path="url(#clipPath2)" fill="none" x1="639" x2="639" y1="41" y2="43"/>
<line clip-path="url(#clipPath2)" fill="none" x1="639" x2="639" y1="679" y2="677"/>
<line clip-path="url(#clipPath2)" fill="none" x1="657" x2="657" y1="39" y2="43"/>
<line clip-path="url(#clipPath2)" fill="none" x1="657" x2="657" y1="681" y2="677"/>
<text x="646" font-size="10" y="32" clip-path="url(#clipPath2)" stroke="none" xml:space="preserve">0.70</text>
<text x="646" font-size="10" y="692" clip-path="url(#clipPath2)" stroke="none" xml:space="preserve">0.70</text>
<line clip-path="url(#clipPath2)" fill="none" x1="674" x2="674" y1="41" y2="43"/>
<line clip-path="url(#clipPath2)" fill="none" x1="674" x2="674" y1="679" y2="677"/>
<line clip-path="url(#clipPath2)" fill="none" x1="691" x2="691" y1="41" y2="43"/>
<line clip-path="url(#clipPath2)" fill="none" x1="691" x2="691" y1="679" y2="677"/>
<line clip-path="url(#clipPath2)" fill="none" x1="709" x2="709" y1="41" y2="43"/>
<line clip-path="url(#clipPath2)" fill="none" x1="709" x2="709" y1="679" y2="677"/>
<line clip-path="url(#clipPath2)" fill="none" x1="726" x2="726" y1="41" y2="43"/>
<line clip-path="url(#clipPath2)" fill="none" x1="726" x2="726" y1="679" y2="677"/>
<line clip-path="url(#clipPath2)" fill="none" x1="743" x2="743" y1="39" y2="43"/>
<line clip-path="url(#clipPath2)" fill="none" x1="743" x2="743" y1="681" y2="677"/>
<text x="732" font-size="10" y="32" clip-path="url(#clipPath2)" stroke="none" xml:space="preserve">0.80</text>
<text x="732" font-size="10" y="692" clip-path="url(#clipPath2)" stroke="none" xml:space="preserve">0.80</text>
<line clip-path="url(#clipPath2)" fill="none" x1="761" x2="761" y1="41" y2="43"/>
<line clip-path="url(#clipPath2)" fill="none" x1="761" x2="761" y1="679" y2="677"/>
<line clip-path="url(#clipPath2)" fill="none" x1="778" x2="778" y1="41" y2="43"/>
<line clip-path="url(#clipPath2)" fill="none" x1="778" x2="778" y1="679" y2="677"/>
<line clip-path="url(#clipPath2)" fill="none" x1="795" x2="795" y1="41" y2="43"/>
<line clip-path="url(#clipPath2)" fill="none" x1="795" x2="795" y1="679" y2="677"/>
<line clip-path="url(#clipPath2)" fill="none" x1="813" x2="813" y1="41" y2="43"/>
<line clip-path="url(#clipPath2)" fill="none" x1="813" x2="813" y1="679" y2="677"/>
<line clip-path="url(#clipPath2)" fill="none" x1="830" x2="830" y1="39" y2="43"/>
<line clip-path="url(#clipPath2)" fill="none" x1="830" x2="830" y1="681" y2="677"/>
<text x="819" font-size="10" y="32" clip-path="url(#clipPath2)" stroke="none" xml:space="preserve">0.90</text>
<text x="819" font-size="10" y="692" clip-path="url(#clipPath2)" stroke="none" xml:space="preserve">0.90</text>
<line clip-path="url(#clipPath2)" fill="none" x1="847" x2="847" y1="41" y2="43"/>
<line clip-path="url(#clipPath2)" fill="none" x1="847" x2="847" y1="679" y2="677"/>
<line clip-path="url(#clipPath2)" fill="none" x1="865" x2="865" y1="41" y2="43"/>
<line clip-path="url(#clipPath2)" fill="none" x1="865" x2="865" y1="679" y2="677"/>
<line clip-path="url(#clipPath2)" fill="none" x1="882" x2="882" y1="41" y2="43"/>
<line clip-path="url(#clipPath2)" fill="none" x1="882" x2="882" y1="679" y2="677"/>
<line clip-path="url(#clipPath2)" fill="none" x1="899" x2="899" y1="41" y2="43"/>
<line clip-path="url(#clipPath2)" fill="none" x1="899" x2="899" y1="679" y2="677"/>
<line clip-path="url(#clipPath2)" fill="none" x1="917" x2="917" y1="39" y2="43"/>
<line clip-path="url(#clipPath2)" fill="none" x1="917" x2="917" y1="681" y2="677"/>
<text x="906" font-size="10" y="32" clip-path="url(#clipPath2)" stroke="none" xml:space="preserve">1.00</text>
<text x="906" font-size="10" y="692" clip-path="url(#clipPath2)" stroke="none" xml:space="preserve">1.00</text>
<line clip-path="url(#clipPath2)" fill="none" x1="49" x2="49" y1="45" y2="675"/>
<line clip-path="url(#clipPath2)" fill="none" x1="930" x2="930" y1="45" y2="675"/>
<line clip-path="url(#clipPath2)" fill="none" x1="45" x2="49" y1="675" y2="675"/>
<line clip-path="url(#clipPath2)" fill="none" x1="934" x2="930" y1="675" y2="675"/>
<text x="38" font-size="10" y="677" clip-path="url(#clipPath2)" stroke="none" xml:space="preserve">0</text>
<text x="937" font-size="10" y="677" clip-path="url(#clipPath2)" stroke="none" xml:space="preserve">0</text>
<line clip-path="url(#clipPath2)" fill="none" x1="47" x2="49" y1="627" y2="627"/>
<line clip-path="url(#clipPath2)" fill="none" x1="932" x2="930" y1="627" y2="627"/>
<line clip-path="url(#clipPath2)" fill="none" x1="45" x2="49" y1="580" y2="580"/>
<line clip-path="url(#clipPath2)" fill="none" x1="934" x2="930" y1="580" y2="580"/>
<text x="26" font-size="10" y="582" clip-path="url(#clipPath2)" stroke="none" xml:space="preserve">0.2</text>
<text x="937" font-size="10" y="582" clip-path="url(#clipPath2)" stroke="none" xml:space="preserve">0.2</text>
<line clip-path="url(#clipPath2)" fill="none" x1="47" x2="49" y1="533" y2="533"/>
<line clip-path="url(#clipPath2)" fill="none" x1="932" x2="930" y1="533" y2="533"/>
<line clip-path="url(#clipPath2)" fill="none" x1="45" x2="49" y1="485" y2="485"/>
<line clip-path="url(#clipPath2)" fill="none" x1="934" x2="930" y1="485" y2="485"/>
<text x="26" font-size="10" y="487" clip-path="url(#clipPath2)" stroke="none" xml:space="preserve">0.4</text>
<text x="937" font-size="10" y="487" clip-path="url(#clipPath2)" stroke="none" xml:space="preserve">0.4</text>
<line clip-path="url(#clipPath2)" fill="none" x1="47" x2="49" y1="438" y2="438"/>
<line clip-path="url(#clipPath2)" fill="none" x1="932" x2="930" y1="438" y2="438"/>
<line clip-path="url(#clipPath2)" fill="none" x1="45" x2="49" y1="391" y2="391"/>
<line clip-path="url(#clipPath2)" fill="none" x1="934" x2="930" y1="391" y2="391"/>
<text x="26" font-size="10" y="393" clip-path="url(#clipPath2)" stroke="none" xml:space="preserve">0.6</text>
<text x="937" font-size="10" y="393" clip-path="url(#clipPath2)" stroke="none" xml:space="preserve">0.6</text>
<line clip-path="url(#clipPath2)" fill="none" x1="47" x2="49" y1="344" y2="344"/>
<line clip-path="url(#clipPath2)" fill="none" x1="932" x2="930" y1="344" y2="344"/>
<line clip-path="url(#clipPath2)" fill="none" x1="45" x2="49" y1="296" y2="296"/>
<line clip-path="url(#clipPath2)" fill="none" x1="934" x2="930" y1="296" y2="296"/>
<text x="26" font-size="10" y="298" clip-path="url(#clipPath2)" stroke="none" xml:space="preserve">0.8</text>
<text x="937" font-size="10" y="298" clip-path="url(#clipPath2)" stroke="none" xml:space="preserve">0.8</text>
<line clip-path="url(#clipPath2)" fill="none" x1="47" x2="49" y1="249" y2="249"/>
<line clip-path="url(#clipPath2)" fill="none" x1="932" x2="930" y1="249" y2="249"/>
<line clip-path="url(#clipPath2)" fill="none" x1="45" x2="49" y1="202" y2="202"/>
<line clip-path="url(#clipPath2)" fill="none" x1="934" x2="930" y1="202" y2="202"/>
<text x="26" font-size="10" y="204" clip-path="url(#clipPath2)" stroke="none" xml:space="preserve">1.0</text>
<text x="937" font-size="10" y="204" clip-path="url(#clipPath2)" stroke="none" xml:space="preserve">1.0</text>
<line clip-path="url(#clipPath2)" fill="none" x1="47" x2="49" y1="155" y2="155"/>
<line clip-path="url(#clipPath2)" fill="none" x1="932" x2="930" y1="155" y2="155"/>
<line clip-path="url(#clipPath2)" fill="none" x1="45" x2="49" y1="107" y2="107"/>
<line clip-path="url(#clipPath2)" fill="none" x1="934" x2="930" y1="107" y2="107"/>
<text x="26" font-size="10" y="109" clip-path="url(#clipPath2)" stroke="none" xml:space="preserve">1.2</text>
<text x="937" font-size="10" y="109" clip-path="url(#clipPath2)" stroke="none" xml:space="preserve">1.2</text>
<line clip-path="url(#clipPath2)" fill="none" x1="47" x2="49" y1="60" y2="60"/>
<line clip-path="url(#clipPath2)" fill="none" x1="932" x2="930" y1="60" y2="60"/>
</g>
</g>
</svg>
